<?xml version="1.0" standalone="no"?>
<!DOCTYPE svg PUBLIC "-//W3C//DTD SVG 20010904//EN"
 "http://www.w3.org/TR/2001/REC-SVG-20010904/DTD/svg10.dtd">
<svg version="1.0" xmlns="http://www.w3.org/2000/svg"
 width="1024.000000pt" height="1024.000000pt" viewBox="0 0 1024.000000 1024.000000"
 preserveAspectRatio="xMidYMid meet">

<g transform="translate(0.000000,1024.000000) scale(0.100000,-0.100000)"
fill="#000000" stroke="none">
<path d="M0 5120 l0 -5120 5120 0 5120 0 0 5120 0 5120 -5120 0 -5120 0 0
-5120z m1845 2594 c382 -52 864 -215 1228 -415 677 -373 1230 -967 1621 -1739
146 -288 263 -579 352 -874 61 -205 59 -195 41 -174 -8 10 -16 16 -19 13 -2
-3 -5 1 -5 8 0 37 -351 511 -520 701 -23 26 -40 52 -37 57 3 5 2 8 -3 7 -12
-4 -314 308 -305 316 4 4 2 6 -3 4 -14 -4 -85 51 -82 65 1 6 -3 11 -9 12 -7 0
-29 18 -50 41 -22 22 -28 27 -14 10 19 -23 13 -20 -27 14 -29 24 -53 45 -53
48 0 3 8 -1 18 -9 10 -8 7 -4 -6 9 -13 12 -27 20 -32 17 -4 -3 -14 3 -21 12
-8 10 -9 14 -2 10 6 -4 14 -4 17 1 3 5 0 9 -7 10 -28 2 -48 9 -59 20 -8 8 -4
10 18 6 l29 -4 -25 20 c-26 20 -41 25 -39 13 3 -20 -2 -24 -16 -13 -10 8 -12
17 -6 24 11 13 -5 60 -18 52 -7 -5 -61 89 -61 107 0 11 -33 46 -40 42 -3 -2
-7 6 -7 18 -1 12 -7 23 -13 25 -5 2 -10 9 -10 16 0 7 -9 21 -20 31 -11 10 -20
24 -20 32 0 7 -4 13 -10 13 -5 0 -10 8 -10 18 0 10 -13 32 -30 50 -16 18 -30
35 -30 38 0 2 -11 22 -24 43 -14 21 -23 41 -20 44 3 3 0 8 -7 13 -8 5 -10 3
-5 -7 4 -8 1 -6 -6 5 -7 10 -23 29 -36 42 -13 13 -18 24 -12 24 5 0 10 5 10
10 0 6 -7 10 -15 10 -8 0 -15 8 -15 18 0 9 -9 23 -20 30 -12 7 -18 17 -15 21
3 5 -14 26 -37 46 -24 20 -37 34 -30 30 20 -10 -2 28 -45 79 -7 8 -13 21 -13
28 0 8 -14 22 -30 32 -17 9 -29 20 -28 24 2 4 -23 34 -56 67 -32 33 -53 51
-45 40 14 -20 13 -20 -9 -1 -12 11 -22 25 -22 32 0 7 -5 16 -12 20 -7 5 -9 2
-4 -7 6 -10 4 -10 -6 1 -7 8 -22 22 -32 30 -18 13 -19 13 -11 0 4 -8 -7 -1
-25 15 -18 17 -30 24 -25 16 5 -9 0 -8 -18 3 -36 24 -84 37 -151 40 -32 2 -61
8 -65 13 -3 5 -26 9 -51 8 -25 0 -49 1 -55 4 -17 9 -39 10 -50 2 -15 -11 -40
-8 -40 6 0 7 -11 20 -24 30 -14 9 -21 11 -16 4 4 -8 -4 -6 -19 4 -26 17 -37
33 -13 19 6 -4 9 -4 5 0 -3 4 -9 7 -12 7 -4 -1 -52 31 -109 70 -146 102 -204
138 -469 298 -131 78 -240 147 -244 152 -6 11 24 8 211 -17z m6750 17 c-6 -5
-109 -69 -230 -142 -258 -155 -376 -230 -504 -323 -51 -37 -90 -62 -86 -54 4
7 -3 2 -16 -12 -13 -14 -19 -19 -14 -11 6 9 -7 2 -28 -15 -28 -23 -45 -30 -64
-26 -19 4 -24 2 -18 -8 6 -9 3 -10 -13 -1 -13 7 -23 7 -27 2 -3 -5 -17 -8 -32
-7 -15 2 -49 -3 -77 -10 -27 -7 -53 -11 -57 -8 -4 2 -10 0 -13 -5 -4 -5 -14
-8 -24 -6 -9 1 -30 -4 -45 -12 -15 -7 -31 -11 -36 -9 -5 3 -14 -1 -21 -9 -7
-8 -17 -15 -22 -15 -19 0 -68 -42 -62 -52 4 -7 2 -8 -5 -4 -7 5 -26 -7 -47
-28 -19 -19 -49 -47 -65 -61 -17 -14 -27 -25 -23 -25 4 0 -3 -8 -14 -19 -12
-10 -19 -21 -15 -25 3 -3 1 -6 -6 -6 -7 0 -9 -5 -6 -10 4 -6 1 -9 -7 -8 -7 2
-12 -4 -10 -12 2 -8 0 -12 -4 -8 -10 11 -34 -11 -34 -31 0 -9 -14 -29 -30 -44
-17 -16 -27 -34 -23 -39 3 -6 2 -9 -3 -6 -5 3 -15 0 -22 -8 -7 -8 -10 -14 -7
-14 4 0 -1 -7 -9 -16 -9 -8 -13 -20 -10 -26 4 -7 2 -8 -5 -4 -16 10 -41 -12
-34 -30 7 -18 -16 -46 -30 -37 -5 3 -7 1 -3 -5 3 -6 -1 -17 -9 -25 -8 -9 -15
-20 -15 -26 0 -6 -4 -11 -8 -11 -10 0 -37 -51 -33 -63 1 -5 -3 -6 -8 -2 -6 3
-15 -4 -21 -15 -6 -12 -16 -18 -23 -13 -7 4 -5 -2 3 -12 12 -15 12 -17 1 -10
-11 6 -13 4 -7 -11 4 -10 4 -15 0 -11 -7 7 -39 -30 -39 -46 0 -4 -4 -11 -10
-15 -19 -14 -50 -56 -35 -47 8 4 5 -2 -8 -14 -12 -12 -20 -26 -17 -32 4 -5 1
-9 -4 -9 -6 0 -11 -4 -11 -9 0 -6 -11 -22 -24 -36 -15 -16 -22 -33 -19 -42 4
-9 -1 -21 -11 -29 -10 -6 -16 -14 -15 -16 5 -8 -13 -47 -22 -45 -6 1 -22 -14
-37 -32 -15 -19 -22 -32 -16 -28 6 3 11 0 11 -8 0 -8 -4 -12 -9 -9 -5 3 -27
-14 -50 -38 -23 -23 -36 -34 -28 -23 7 11 -2 4 -21 -16 -19 -20 -77 -72 -129
-115 -267 -220 -647 -649 -895 -1009 -38 -55 -83 -118 -100 -140 -18 -22 -35
-47 -39 -55 -14 -28 36 35 106 133 281 395 686 774 1115 1042 237 148 587 310
842 389 281 88 657 157 846 156 29 -1 29 -1 10 -16 -11 -8 -69 -43 -130 -76
-214 -120 -371 -211 -464 -272 -52 -33 -101 -61 -109 -62 -7 -2 -22 -10 -32
-19 -10 -9 -24 -14 -30 -10 -6 4 -17 2 -25 -5 -9 -8 -15 -8 -20 0 -3 6 -12 7
-18 3 -7 -4 -21 -8 -32 -9 -80 -7 -142 -18 -154 -28 -12 -9 -13 -8 -6 4 5 9
-1 7 -15 -5 -13 -11 -20 -14 -16 -8 5 9 2 11 -8 7 -9 -3 -16 -10 -16 -15 0 -5
-5 -9 -10 -9 -6 0 -33 -16 -60 -35 -28 -19 -50 -32 -50 -29 0 4 -9 -1 -20 -11
-11 -10 -17 -23 -13 -29 3 -6 3 -8 -1 -4 -9 8 -106 -87 -106 -104 0 -6 -3 -8
-7 -5 -9 9 -34 -13 -27 -24 3 -5 0 -9 -6 -9 -6 0 -8 -5 -5 -10 4 -6 1 -9 -7
-8 -7 2 -12 -3 -10 -10 1 -8 -1 -11 -6 -8 -10 6 -42 -29 -42 -45 0 -5 -4 -7
-10 -4 -5 3 -10 1 -10 -5 0 -6 -7 -19 -16 -28 -8 -9 -36 -39 -62 -67 -33 -35
-37 -41 -12 -20 22 19 14 7 -20 -31 -30 -33 -57 -59 -60 -58 -3 1 -14 -8 -25
-19 -11 -11 -13 -17 -5 -12 8 4 2 -5 -15 -20 -16 -14 -23 -23 -15 -19 8 5 -4
-14 -27 -40 -24 -27 -43 -53 -43 -58 0 -5 -4 -6 -10 -3 -6 3 -7 -1 -4 -10 5
-11 0 -18 -16 -22 l-22 -6 23 -14 24 -14 -27 4 c-15 2 -26 1 -23 -2 2 -4 -53
-22 -123 -40 -337 -89 -687 -230 -927 -375 -32 -19 -61 -34 -63 -32 -13 13
108 386 200 616 392 978 990 1709 1763 2151 412 236 965 418 1385 457 52 5
102 10 110 11 9 0 10 -2 5 -8z m-6274 -1491 c263 -26 593 -106 879 -211 183
-68 506 -229 665 -331 374 -240 750 -577 1010 -903 79 -99 175 -238 175 -253
0 -5 -82 32 -182 83 -252 127 -448 200 -745 280 -79 21 -140 41 -138 45 2 4
-4 15 -15 25 -11 10 -20 22 -20 27 0 9 -11 22 -67 83 -21 22 -36 44 -35 48 1
4 -3 14 -10 21 -36 37 -83 92 -83 96 0 3 -15 20 -33 38 -18 18 -30 32 -27 32
3 0 -7 12 -22 26 -15 15 -19 21 -8 14 11 -7 5 1 -12 17 -18 17 -30 33 -26 37
6 6 -12 10 -30 7 -5 -1 -6 2 -3 7 3 5 -8 24 -24 42 -16 18 -27 37 -24 42 3 5
1 7 -5 6 -6 -2 -41 29 -78 68 -72 74 -158 153 -133 119 10 -13 2 -10 -22 9
-21 16 -38 25 -38 22 0 -4 -12 0 -27 7 -16 8 -38 13 -50 12 -13 -1 -23 3 -23
8 0 5 -6 7 -14 4 -8 -3 -17 -3 -20 1 -7 6 -16 8 -86 17 -46 7 -70 11 -106 19
-11 2 -27 0 -34 -4 -9 -6 -34 6 -74 35 -97 68 -206 133 -441 265 -121 67 -229
129 -240 136 -18 13 -16 14 22 14 22 0 87 -5 144 -10z m4219 -114 c0 -2 -8
-10 -17 -17 -16 -13 -17 -12 -4 4 13 16 21 21 21 13z m-2766 -167 c-3 -5 -10
-7 -15 -3 -5 3 -7 10 -3 15 3 5 10 7 15 3 5 -3 7 -10 3 -15z m2675 8 c8 -10 7
-14 -2 -14 -8 0 -14 6 -14 14 0 7 1 13 2 13 2 0 8 -6 14 -13z m-2629 -11 c0
-2 -6 -9 -14 -15 -11 -9 -16 -9 -22 0 -4 7 -3 9 4 5 6 -3 13 -2 17 4 6 10 15
14 15 6z m-873 -173 c0 -9 -4 -10 -14 -2 -7 6 -13 12 -13 14 0 1 6 2 13 2 8 0
14 -6 14 -14z m1010 -829 c-3 -3 -12 -4 -19 -1 -8 3 -5 6 6 6 11 1 17 -2 13
-5z m-354 -281 c-13 -2 -35 -2 -50 0 -16 2 -5 4 22 4 28 0 40 -2 28 -4z m575
-8 c300 -26 594 -77 808 -142 l121 -37 -17 -70 c-61 -253 -196 -670 -213 -659
-6 4 -8 0 -5 -9 4 -8 1 -15 -7 -15 -7 0 -11 6 -8 14 4 9 0 11 -11 7 -11 -4
-16 0 -17 12 0 12 -3 14 -6 6 -4 -10 -9 -8 -20 7 -8 12 -23 21 -35 21 -13 0
-18 5 -15 14 4 10 0 13 -14 11 -14 -3 -19 0 -16 9 4 9 -2 12 -20 10 -17 -2
-23 2 -20 11 4 9 -1 11 -16 7 -19 -5 -20 -3 -9 10 10 13 10 17 -2 21 -16 6
-50 -26 -39 -37 5 -4 3 -6 -2 -4 -6 2 -89 -77 -184 -174 -265 -272 -400 -389
-649 -560 -127 -88 -275 -203 -362 -282 l-55 -50 45 48 c60 64 209 183 350
281 302 207 521 403 850 760 40 44 66 70 56 58 -13 -16 -14 -23 -5 -29 7 -4
10 -3 6 3 -4 6 0 16 8 23 8 7 13 16 10 19 -4 7 133 178 321 402 38 46 74 91
79 99 5 8 -81 -75 -191 -186 -109 -110 -241 -238 -292 -284 -78 -70 -94 -80
-98 -64 -3 10 -16 24 -30 31 -18 8 -22 8 -17 0 3 -7 -7 1 -24 16 -17 15 -34
27 -39 26 -20 -4 -34 2 -34 14 0 6 -20 21 -44 31 -25 11 -43 24 -40 28 3 4 0
8 -6 8 -6 0 -16 5 -23 10 -7 6 -33 24 -59 41 -27 17 -48 37 -48 44 0 8 -4 16
-9 19 -5 4 -7 -3 -4 -14 3 -11 9 -23 14 -26 5 -3 9 -11 9 -17 0 -7 -5 -4 -11
6 -6 9 -14 15 -19 12 -4 -3 -6 5 -2 17 5 19 2 21 -29 15 -118 -22 263 98 596
188 289 79 341 93 332 94 -17 2 -557 -61 -695 -80 -78 -11 -155 -18 -170 -17
-32 4 -56 32 -56 68 0 53 14 52 61 -5 25 -30 48 -55 50 -55 3 0 -11 20 -31 45
-20 25 -52 65 -72 90 -20 25 -40 43 -44 40 -4 -2 -6 7 -4 20 1 14 -3 28 -8 32
-7 3 -8 1 -4 -5 12 -20 0 -13 -20 11 -10 12 -15 19 -10 15 14 -12 34 11 29 32
-4 16 -16 20 -67 23 -48 2 -52 4 -16 5 25 1 123 -5 218 -13z m2102 5 c-36 -4
-60 -7 -53 -8 22 -3 21 -31 -3 -167 -3 -16 -6 -59 -8 -95 -3 -77 29 -73 -261
-31 -176 25 -521 67 -720 86 -28 2 25 -15 120 -39 329 -85 820 -237 755 -234
-14 1 -36 0 -50 -1 -20 -1 -22 -3 -10 -11 12 -8 12 -10 1 -10 -11 0 -11 -3 -1
-16 8 -8 9 -14 4 -13 -21 4 -35 -2 -29 -11 3 -6 -1 -13 -10 -16 -13 -6 -14 -8
-3 -15 10 -7 9 -9 -4 -9 -16 0 -23 -17 -19 -42 0 -5 -3 -8 -9 -8 -5 0 -10 -9
-10 -21 0 -16 -4 -19 -20 -14 -15 5 -18 3 -14 -9 4 -10 -3 -20 -20 -27 -14 -7
-26 -18 -26 -25 0 -6 -13 -26 -30 -44 -24 -26 -32 -29 -49 -21 -15 8 -19 8
-17 -3 1 -8 8 -21 14 -29 11 -13 10 -15 -2 -13 -23 3 -220 181 -456 411 -118
115 -194 187 -169 160 26 -28 109 -129 186 -225 77 -96 161 -199 186 -229 25
-30 44 -58 41 -63 -3 -5 0 -7 8 -6 7 2 12 -3 11 -9 -2 -7 0 -12 5 -11 4 2 32
-24 62 -57 30 -33 46 -52 35 -43 -11 9 -24 17 -30 17 -5 1 -10 5 -10 10 0 25
-11 16 -13 -10 -2 -22 1 -29 10 -24 7 4 4 0 -6 -9 -10 -8 -23 -13 -28 -10 -5
3 -17 -4 -27 -15 -10 -12 -23 -21 -30 -21 -6 0 -11 -4 -11 -10 0 -5 -3 -9 -7
-9 -22 4 -32 -3 -27 -16 4 -10 2 -13 -8 -10 -9 4 -29 -5 -46 -19 -16 -15 -36
-26 -44 -26 -8 0 -20 -6 -27 -12 -10 -11 -11 -9 -5 6 5 12 4 17 -3 13 -12 -8
-77 146 -143 339 -47 141 -140 487 -140 524 0 20 179 78 350 114 201 43 357
63 685 89 22 2 74 4 115 4 l75 0 -65 -7z m-2807 -7 c-13 -2 -33 -2 -45 0 -13
2 -3 4 22 4 25 0 35 -2 23 -4z m-100 -10 c-7 -2 -19 -2 -25 0 -7 3 -2 5 12 5
14 0 19 -2 13 -5z m-70 -10 c-7 -2 -19 -2 -25 0 -7 3 -2 5 12 5 14 0 19 -2 13
-5z m-96 -19 c-3 -3 -12 -4 -19 -1 -8 3 -5 6 6 6 11 1 17 -2 13 -5z m-52 -14
c-11 -5 -27 -9 -35 -9 -9 0 -8 4 5 9 11 5 27 9 35 9 9 0 8 -4 -5 -9z m-125
-40 c-8 -5 -19 -10 -25 -10 -5 0 -3 5 5 10 8 5 20 10 25 10 6 0 3 -5 -5 -10z
m-60 -25 c-14 -8 -29 -14 -35 -14 -5 0 1 6 15 14 14 8 30 14 35 14 6 0 -1 -6
-15 -14z m-50 -19 c0 -2 -7 -7 -16 -10 -8 -3 -12 -2 -9 4 6 10 25 14 25 6z
m1184 -47 c-3 -5 -10 -9 -15 -9 -6 0 -7 5 -4 10 4 6 1 19 -6 28 -11 13 -9 13
8 -2 13 -10 20 -23 17 -27z m-1258 8 c-119 -75 -205 -134 -262 -181 -58 -48
-61 -50 -20 -11 70 66 274 207 295 204 3 0 -3 -6 -13 -12z m-336 -240 c0 -2
-15 -16 -32 -33 l-33 -29 29 33 c28 30 36 37 36 29z m1539 -82 c-3 -2 -55 -22
-116 -44 -426 -153 -707 -304 -867 -466 -48 -48 -49 -48 -18 -8 43 56 111 111
218 179 153 97 310 168 719 327 39 15 73 22 64 12z m432 -268 c-6 -8 -8 -16
-5 -19 3 -3 1 -9 -4 -12 -6 -3 -9 0 -8 6 2 16 15 38 23 38 3 0 0 -6 -6 -13z
m1384 -297 c71 -71 127 -130 125 -130 -3 0 -64 59 -135 130 -71 72 -127 130
-125 130 3 0 64 -58 135 -130z m211 -202 l29 -33 -32 29 c-18 17 -33 31 -33
33 0 8 8 1 36 -29z m84 -73 c13 -14 21 -25 18 -25 -2 0 -15 11 -28 25 -13 14
-21 25 -18 25 2 0 15 -11 28 -25z"/>
<path d="M2546 7152 c-3 -5 1 -9 9 -9 8 0 12 4 9 9 -3 4 -7 8 -9 8 -2 0 -6 -4
-9 -8z"/>
<path d="M3841 5926 c-9 -11 -9 -16 1 -22 7 -4 10 -4 6 1 -4 4 -3 14 3 22 6 7
9 13 6 13 -2 0 -10 -6 -16 -14z"/>
<path d="M3967 4989 c7 -7 15 -10 18 -7 3 3 -2 9 -12 12 -14 6 -15 5 -6 -5z"/>
<path d="M4035 4610 c-3 -6 1 -7 9 -4 18 7 21 14 7 14 -6 0 -13 -4 -16 -10z"/>
<path d="M4529 3933 l-24 -28 28 24 c25 23 32 31 24 31 -2 0 -14 -12 -28 -27z"/>
<path d="M5770 3856 c0 -2 8 -10 18 -17 15 -13 16 -12 3 4 -13 16 -21 21 -21
13z"/>
</g>
</svg>
